<?xml version="1.0" encoding="UTF-8" standalone="no"?>
<!-- Created with Inkscape (http://www.inkscape.org/) -->

<svg
   width="500"
   height="500"
   viewBox="0 0 132.29166 132.29167"
   version="1.1"
   id="svg1"
   xmlns="http://www.w3.org/2000/svg"
   xmlns:svg="http://www.w3.org/2000/svg">
  <defs
     id="defs1" />
  <g
     id="layer1" />
  <g
     id="g78"
     style="fill:#0000ff">
    <path
       id="path83"
       style="fill:#ff0000"
       d="m 64.563357,97.03907 67.728313,9.53036 V 26.049362 l -67.728313,8.53486 z"
       points="132.29167,106.56943 132.29167,26.049362 64.563357,34.584222 64.563357,97.03907 " />
    <path
       id="path78"
       style="fill:#ff00ff"
       d="M 1.8532701e-6,104.68763 V 27.734597 L 64.563357,34.584222 V 97.03907 Z"
       points="1.8532701e-06,27.734597 64.563357,34.584222 64.563357,97.03907 1.8532701e-06,104.68763 " />
    <path
       id="path82"
       style="fill:#0000ff"
       d="M 1.8532701e-6,27.734597 64.790837,13.844597 132.29167,26.049362 64.563357,34.584222 Z"
       points="64.790837,13.844597 132.29167,26.049362 64.563357,34.584222 1.8532701e-06,27.734597 " />
    <path
       id="path79"
       style="fill:#00ff00"
       d="M 1.8532701e-6,104.68763 64.790837,120.19776 132.29167,106.56943 64.563357,97.03907 Z"
       points="64.790837,120.19776 132.29167,106.56943 64.563357,97.03907 1.8532701e-06,104.68763 " />
    <path
       id="path80"
       style="fill:#ffff00"
       d="M 1.8532701e-6,104.68763 64.790837,120.19776 V 13.844597 L 1.8532701e-6,27.734597 Z"
       points="64.790837,120.19776 64.790837,13.844597 1.8532701e-06,27.734597 1.8532701e-06,104.68763 " />
  </g>
</svg>
