<?xml version="1.0" encoding="UTF-8" standalone="no"?>
<!-- Created with Inkscape (http://www.inkscape.org/) -->

<svg
   width="500"
   height="500"
   viewBox="0 0 132.29166 132.29167"
   version="1.1"
   id="svg1"
   xmlns:xlink="http://www.w3.org/1999/xlink"
   xmlns="http://www.w3.org/2000/svg"
   xmlns:svg="http://www.w3.org/2000/svg">
  <defs
     id="defs1">
    <linearGradient
       id="linearGradient18">
      <stop
         style="stop-color:#ffffff;stop-opacity:1;"
         offset="0"
         id="stop18" />
      <stop
         style="stop-color:#ff0000;stop-opacity:1"
         offset="1"
         id="stop19" />
    </linearGradient>
    <radialGradient
       xlink:href="#linearGradient18"
       id="radialGradient19"
       cx="61.654076"
       cy="86.500481"
       fx="61.654076"
       fy="86.500481"
       r="248.64531"
       gradientTransform="matrix(1,0,0,1.0006285,0,-0.15771528)"
       gradientUnits="userSpaceOnUse" />
    <radialGradient
       xlink:href="#linearGradient18"
       id="radialGradient23"
       gradientUnits="userSpaceOnUse"
       gradientTransform="matrix(1,0,0,1.0006285,0,-0.15771528)"
       cx="135.29044"
       cy="134.65202"
       fx="135.29044"
       fy="134.65202"
       r="248.64531" />
  </defs>
  <g
     id="layer1">
    <ellipse
       style="fill:#f9f9f9;stroke-width:0.264583"
       id="path16"
       cx="65.905304"
       cy="66.38636"
       rx="65.905304"
       ry="65.905327" />
    <path
       style="fill:url(#radialGradient19);stroke-width:0.909091;fill-opacity:1"
       d="M 230.08295,499.01598 C 116.00017,490.27262 22.260865,404.32038 3.6177875,291.36364 -4.8432433,240.09901 2.8662242,188.12056 25.865857,141.36364 45.936374,100.56144 75.270057,67.352036 113.18182,42.511037 176.67995,0.90502866 257.21804,-9.2316455 329.21607,15.320559 405.57853,41.361082 464.08964,102.2107 487.56673,180 c 7.11692,23.5813 10.00538,44.05211 10.00538,70.90909 0,41.72523 -8.78604,78.12274 -27.62237,114.42993 -45.98301,88.63263 -140.47769,141.2942 -239.86679,133.67696 z"
       id="path17"
       transform="scale(0.26458333)" />
    <path
       style="fill:url(#radialGradient19);stroke-width:0.909091;fill-opacity:1"
       d="M 230.08295,499.01598 C 116.00017,490.27262 22.260865,404.32038 3.6177875,291.36364 -4.8432433,240.09901 2.8662242,188.12056 25.865857,141.36364 45.936374,100.56144 75.270057,67.352036 113.18182,42.511037 176.67995,0.90502866 257.21804,-9.2316455 329.21607,15.320559 405.57853,41.361082 464.08964,102.2107 487.56673,180 c 7.11692,23.5813 10.00538,44.05211 10.00538,70.90909 0,41.72523 -8.78604,78.12274 -27.62237,114.42993 -45.98301,88.63263 -140.47769,141.2942 -239.86679,133.67696 z"
       id="path19"
       transform="scale(0.26458333)" />
    <path
       style="fill:url(#radialGradient19);stroke-width:0.909091;fill-opacity:1"
       d="M 230.08295,499.01598 C 116.00017,490.27262 22.260865,404.32038 3.6177875,291.36364 -4.8432433,240.09901 2.8662242,188.12056 25.865857,141.36364 45.936374,100.56144 75.270057,67.352036 113.18182,42.511037 176.67995,0.90502866 257.21804,-9.2316455 329.21607,15.320559 405.57853,41.361082 464.08964,102.2107 487.56673,180 c 7.11692,23.5813 10.00538,44.05211 10.00538,70.90909 0,41.72523 -8.78604,78.12274 -27.62237,114.42993 -45.98301,88.63263 -140.47769,141.2942 -239.86679,133.67696 z"
       id="path20"
       transform="scale(0.26458333)" />
    <path
       style="fill:url(#radialGradient19);stroke-width:0.909091;fill-opacity:1"
       d="M 230.08295,499.01598 C 116.00017,490.27262 22.260865,404.32038 3.6177875,291.36364 -4.8432433,240.09901 2.8662242,188.12056 25.865857,141.36364 45.936374,100.56144 75.270057,67.352036 113.18182,42.511037 176.67995,0.90502866 257.21804,-9.2316455 329.21607,15.320559 405.57853,41.361082 464.08964,102.2107 487.56673,180 c 7.11692,23.5813 10.00538,44.05211 10.00538,70.90909 0,41.72523 -8.78604,78.12274 -27.62237,114.42993 -45.98301,88.63263 -140.47769,141.2942 -239.86679,133.67696 z"
       id="path21"
       transform="scale(0.26458333)" />
    <path
       style="fill:url(#radialGradient19);stroke-width:0.909091;fill-opacity:1"
       d="M 230.08295,499.01598 C 116.00017,490.27262 22.260865,404.32038 3.6177875,291.36364 -4.8432433,240.09901 2.8662242,188.12056 25.865857,141.36364 45.936374,100.56144 75.270057,67.352036 113.18182,42.511037 176.67995,0.90502866 257.21804,-9.2316455 329.21607,15.320559 405.57853,41.361082 464.08964,102.2107 487.56673,180 c 7.11692,23.5813 10.00538,44.05211 10.00538,70.90909 0,41.72523 -8.78604,78.12274 -27.62237,114.42993 -45.98301,88.63263 -140.47769,141.2942 -239.86679,133.67696 z"
       id="path22"
       transform="scale(0.26458333)" />
    <path
       style="fill:url(#radialGradient23);stroke-width:0.909091;fill-opacity:1"
       d="M 230.08295,499.01598 C 116.00017,490.27262 22.260865,404.32038 3.6177875,291.36364 -4.8432433,240.09901 2.8662242,188.12056 25.865857,141.36364 45.936374,100.56144 75.270057,67.352036 113.18182,42.511037 176.67995,0.90502866 257.21804,-9.2316455 329.21607,15.320559 405.57853,41.361082 464.08964,102.2107 487.56673,180 c 7.11692,23.5813 10.00538,44.05211 10.00538,70.90909 0,41.72523 -8.78604,78.12274 -27.62237,114.42993 -45.98301,88.63263 -140.47769,141.2942 -239.86679,133.67696 z"
       id="path23"
       transform="scale(0.26458333)" />
  </g>
</svg>
